<svg width="48" height="48" viewBox="0 0 48 48" fill="none" xmlns="http://www.w3.org/2000/svg">
  <rect width="48" height="48" rx="8" fill="#0077B5"/>
  <path d="M15.5 18.5C16.3284 18.5 17 17.8284 17 17C17 16.1716 16.3284 15.5 15.5 15.5C14.6716 15.5 14 16.1716 14 17C14 17.8284 14.6716 18.5 15.5 18.5Z" fill="white"/>
  <path d="M14 20H17V32H14V20Z" fill="white"/>
  <path d="M20.5 20H23.5V21.5C24.1 20.5 25.1 20 26.5 20C29.5 20 30 22 30 25.5V32H27V26C27 24.5 26.5 23.5 25 23.5C23.5 23.5 23 24.5 23 26V32H20.5V20Z" fill="white"/>
</svg>
